<svg width="482" height="969" viewBox="0 0 482 969" fill="none" xmlns="http://www.w3.org/2000/svg">
<g filter="url(#filter0_dd)">
<path d="M25.0032 862.115L25.0032 940H447.763C447.763 804.647 25.0034 648.778 25.0034 530.691L25.0043 772.453L25.0032 862.115Z" fill="url(#paint0_linear)" fill-opacity="0.24"/>
<path d="M25.0032 862.115L25.0032 940H447.763C447.763 804.647 25.0034 648.778 25.0034 530.691L25.0043 772.453L25.0032 862.115Z" fill="url(#paint1_linear)" fill-opacity="0.33"/>
<path d="M25.0032 862.115L25.0032 940H447.763C475.576 384.24 25 939.927 25 765.811L25.0032 862.115Z" fill="url(#paint2_linear)" fill-opacity="0.24"/>
<path d="M25.0032 862.115L25.0032 940H447.763C475.576 384.24 25 939.927 25 765.811L25.0032 862.115Z" fill="url(#paint3_linear)" fill-opacity="0.33"/>
<path d="M25.0035 121.885L25.0035 44H447.763C475.577 599.76 25.0003 44.0733 25.0003 218.189L25.0035 121.885Z" fill="url(#paint4_linear)" fill-opacity="0.24"/>
<path d="M25.0035 121.885L25.0035 44H447.763C475.577 599.76 25.0003 44.0733 25.0003 218.189L25.0035 121.885Z" fill="url(#paint5_linear)" fill-opacity="0.33"/>
</g>
<defs>
<filter id="filter0_dd" x="0" y="0" width="482" height="969" filterUnits="userSpaceOnUse" color-interpolation-filters="sRGB">
<feFlood flood-opacity="0" result="BackgroundImageFix"/>
<feColorMatrix in="SourceAlpha" type="matrix" values="0 0 0 0 0 0 0 0 0 0 0 0 0 0 0 0 0 0 127 0" result="hardAlpha"/>
<feOffset dx="3" dy="19"/>
<feGaussianBlur stdDeviation="5"/>
<feColorMatrix type="matrix" values="0 0 0 0 0 0 0 0 0 0 0 0 0 0 0 0 0 0 0.25 0"/>
<feBlend mode="normal" in2="BackgroundImageFix" result="effect1_dropShadow"/>
<feColorMatrix in="SourceAlpha" type="matrix" values="0 0 0 0 0 0 0 0 0 0 0 0 0 0 0 0 0 0 127 0" result="hardAlpha"/>
<feOffset dx="4" dy="-15"/>
<feGaussianBlur stdDeviation="14.5"/>
<feColorMatrix type="matrix" values="0 0 0 0 0 0 0 0 0 0.991667 0 0 0 0 0.396667 0 0 0 0.68 0"/>
<feBlend mode="normal" in2="effect1_dropShadow" result="effect2_dropShadow"/>
<feBlend mode="normal" in="SourceGraphic" in2="effect2_dropShadow" result="shape"/>
</filter>
<linearGradient id="paint0_linear" x1="204.434" y1="502.68" x2="206.526" y2="953.306" gradientUnits="userSpaceOnUse">
<stop stop-color="#03A4FE"/>
<stop offset="0.489583" stop-color="#0F36BE" stop-opacity="0.86714"/>
<stop offset="1" stop-color="white"/>
</linearGradient>
<linearGradient id="paint1_linear" x1="298.341" y1="652.089" x2="272.652" y2="951.889" gradientUnits="userSpaceOnUse">
<stop stop-color="#FF00E5" stop-opacity="0.43"/>
<stop offset="1" stop-color="#141414"/>
</linearGradient>
<linearGradient id="paint2_linear" x1="204.434" y1="502.68" x2="206.526" y2="953.306" gradientUnits="userSpaceOnUse">
<stop stop-color="#03A4FE"/>
<stop offset="0.489583" stop-color="#0F36BE" stop-opacity="0.86714"/>
<stop offset="1" stop-color="white"/>
</linearGradient>
<linearGradient id="paint3_linear" x1="298.341" y1="652.089" x2="272.652" y2="951.889" gradientUnits="userSpaceOnUse">
<stop stop-color="#FF00E5" stop-opacity="0.43"/>
<stop offset="1" stop-color="#141414"/>
</linearGradient>
<linearGradient id="paint4_linear" x1="204.434" y1="502.68" x2="206.526" y2="953.306" gradientUnits="userSpaceOnUse">
<stop stop-color="#03A4FE"/>
<stop offset="0.489583" stop-color="#0F36BE" stop-opacity="0.86714"/>
<stop offset="1" stop-color="white"/>
</linearGradient>
<linearGradient id="paint5_linear" x1="298.341" y1="652.089" x2="272.652" y2="951.889" gradientUnits="userSpaceOnUse">
<stop stop-color="#FF00E5" stop-opacity="0.43"/>
<stop offset="1" stop-color="#141414"/>
</linearGradient>
</defs>
</svg>
